<svg width="125" height="36" viewBox="0 0 125 36" fill="none" xmlns="http://www.w3.org/2000/svg">
<g clip-path="url(#clip0_3_463)">
<path d="M44.7406 1.78068V25.1088C44.7406 25.1088 44.8216 28.722 41.7853 32.152C38.7505 35.5821 34.7651 35.9985 33.7096 35.9985H29.1709L29.7452 10.0479C29.7452 10.0479 29.8201 6.14686 33.1293 2.8881C36.284 -0.217107 40.3084 0.00290083 40.3084 0.00290083H42.9998C42.9998 0.00290083 44.7406 -0.158044 44.7406 1.78068Z" fill="url(#paint0_linear_3_463)"/>
<path d="M14.7137 20.1948L14.8456 35.9999H1.57896C1.57896 35.9999 9.79328e-05 35.963 9.79328e-05 34.7478V30.0081C9.79328e-05 30.0081 -0.0583788 26.5189 2.68252 23.588C5.42341 20.657 8.69359 20.2716 9.71168 20.2716C10.7298 20.2716 14.7137 20.1934 14.7137 20.1934V20.1948Z" fill="url(#paint1_linear_3_463)"/>
<path d="M29.8111 35.9999H14.1079L14.7137 20.1948C14.7137 20.1948 14.5277 16.4325 18.0573 13.0881C20.4788 10.7935 22.7264 10.2133 24.6906 10.2133H29.7421L29.8111 35.9999Z" fill="url(#paint2_linear_3_463)"/>
<path d="M29.1572 35.9999H29.811L29.742 10.2133L29.1572 35.9999Z" fill="#4784AD"/>
<path opacity="0.59" d="M14.7123 20L14.093 36H14.8307L14.7123 20Z" fill="#5592B7"/>
<path d="M57.7221 7.05944C56.941 7.05944 56.2917 7.33261 55.7744 7.87746C55.2571 8.4164 54.9992 9.11038 54.9992 9.95793C54.9992 10.8055 55.2601 11.5157 55.7834 12.0665C56.3127 12.6172 56.962 12.8933 57.7311 12.8933C58.5003 12.8933 59.1826 12.6231 59.7058 12.0842C60.2291 11.5393 60.49 10.8276 60.49 9.94907C60.49 9.07052 60.2291 8.3913 59.7058 7.85826C59.1826 7.32522 58.5213 7.05797 57.7221 7.05797V7.05944ZM60.3701 5.02327H62.8801V14.9103H60.3701V13.8649C59.8783 14.3256 59.382 14.6593 58.8842 14.8645C58.3924 15.0639 57.8571 15.1643 57.2783 15.1643C55.9799 15.1643 54.8568 14.6711 53.9107 13.6833C52.9631 12.6896 52.4893 11.4566 52.4893 9.98451C52.4893 8.51238 52.9481 7.2071 53.8642 6.23109C54.7803 5.25509 55.8944 4.76782 57.2049 4.76782C57.8076 4.76782 58.3744 4.88004 58.9022 5.10448C59.4315 5.32891 59.9203 5.66557 60.3701 6.11297V5.02179V5.02327Z" fill="#4A4A4C"/>
<path d="M65.1502 5.02328H67.6782V14.9103H65.1502V5.02328ZM66.4142 0.952404C66.8565 0.952404 67.2359 1.1104 67.5492 1.4249C67.8686 1.73941 68.029 2.12184 68.029 2.56924C68.029 3.01663 67.8716 3.3902 67.5582 3.70471C67.2449 4.01331 66.8685 4.16835 66.4322 4.16835C65.9959 4.16835 65.5985 4.01036 65.2792 3.69585C64.9658 3.37544 64.8083 2.9871 64.8083 2.53232C64.8083 2.07754 64.9658 1.72317 65.2792 1.41457C65.5925 1.10597 65.9719 0.950928 66.4142 0.950928V0.952404Z" fill="#4A4A4C"/>
<path d="M69.377 5.02326H71.5361V6.268C71.77 5.77778 72.0804 5.40421 72.4687 5.15024C72.8556 4.89627 73.2814 4.76929 73.7417 4.76929C74.0671 4.76929 74.409 4.85345 74.7658 5.02326L73.9816 7.15836C73.6863 7.01366 73.4433 6.93983 73.2529 6.93983C72.8661 6.93983 72.5362 7.17608 72.2648 7.64858C72.0009 8.12108 71.8675 9.04836 71.8675 10.4289L71.8765 10.9103V14.9088H69.3755V5.02326H69.377Z" fill="#4A4A4C"/>
<path d="M80.792 7.05944C80.0108 7.05944 79.3616 7.33261 78.8443 7.87746C78.327 8.4164 78.0691 9.11038 78.0691 9.95793C78.0691 10.8055 78.33 11.5157 78.8533 12.0665C79.3825 12.6172 80.0318 12.8933 80.801 12.8933C81.5702 12.8933 82.2524 12.6231 82.7757 12.0842C83.299 11.5393 83.5599 10.8276 83.5599 9.94907C83.5599 9.07052 83.299 8.3913 82.7757 7.85826C82.2524 7.32522 81.5912 7.05797 80.792 7.05797V7.05944ZM83.4399 5.02327H85.9499V14.9103H83.4399V13.8649C82.9481 14.3256 82.4518 14.6593 81.954 14.8645C81.4622 15.0639 80.9269 15.1643 80.3482 15.1643C79.0497 15.1643 77.9266 14.6711 76.9805 13.6833C76.0329 12.6896 75.5591 11.4566 75.5591 9.98451C75.5591 8.51238 76.0179 7.2071 76.934 6.23109C77.8502 5.25509 78.9642 4.76782 80.2747 4.76782C80.8774 4.76782 81.4442 4.88004 81.972 5.10448C82.5013 5.32891 82.9901 5.66557 83.4399 6.11297V5.02179V5.02327Z" fill="#4A4A4C"/>
<path d="M90.7495 1.2063H88.2305V14.9102H90.7495V1.2063Z" fill="#4A4A4C"/>
<path d="M97.7905 7.10522C97.0093 7.10522 96.3571 7.37543 95.8338 7.91437C95.3165 8.44741 95.0586 9.13253 95.0586 9.96827C95.0586 10.804 95.3135 11.526 95.8248 12.0591C96.3421 12.5921 96.9943 12.8594 97.7815 12.8594C98.5687 12.8594 99.2239 12.5892 99.7472 12.0502C100.27 11.5113 100.531 10.8173 100.531 9.96974C100.531 9.1222 100.273 8.43412 99.7562 7.90699C99.2449 7.37395 98.5897 7.10669 97.7905 7.10669V7.10522ZM97.753 4.7693C98.7006 4.7693 99.5897 5.0026 100.42 5.46919C101.257 5.93578 101.909 6.56923 102.377 7.36804C102.845 8.16834 103.079 9.03065 103.079 9.95793C103.079 10.8852 102.842 11.7638 102.368 12.5759C101.9 13.388 101.26 14.0244 100.449 14.4836C99.6362 14.9384 98.7411 15.1658 97.7635 15.1658C96.3241 15.1658 95.0931 14.6622 94.072 13.6567C93.0569 12.6453 92.5486 11.4182 92.5486 9.97565C92.5486 8.43117 93.1244 7.14361 94.2744 6.11297C95.2835 5.2167 96.4425 4.76782 97.753 4.76782V4.7693Z" fill="#4A4A4C"/>
<path d="M57.6142 24.5005C56.824 24.5005 56.1687 24.7678 55.6485 25.3023C55.1282 25.8368 54.8673 26.5352 54.8673 27.3975C54.8673 28.2598 55.1282 28.9922 55.6485 29.5385C56.1687 30.079 56.824 30.3492 57.6142 30.3492C58.4043 30.3492 59.0221 30.0731 59.5439 29.5208C60.0702 28.9686 60.3341 28.2628 60.3341 27.4064C60.3341 26.55 60.0762 25.8604 59.5619 25.32C59.0476 24.7737 58.3983 24.5005 57.6142 24.5005ZM54.9782 22.4599V23.5526C55.431 23.1037 55.9213 22.7656 56.4476 22.5411C56.9739 22.3167 57.5377 22.2045 58.1374 22.2045C59.4419 22.2045 60.55 22.6932 61.4631 23.6707C62.3762 24.6482 62.8321 25.9032 62.8321 27.433C62.8321 28.9627 62.3612 30.1454 61.4181 31.1406C60.475 32.1314 59.358 32.626 58.0655 32.626C57.4897 32.626 56.9544 32.5256 56.4581 32.3248C55.9618 32.1181 55.4685 31.7844 54.9797 31.3222V35.9955H52.4907V22.457H54.9797L54.9782 22.4599Z" fill="#4E6EDD"/>
<path d="M69.2811 24.5005C68.5029 24.5005 67.8567 24.7737 67.3424 25.32C66.8281 25.8604 66.5702 26.5559 66.5702 27.4064C66.5702 28.2569 66.8311 28.9671 67.3514 29.5208C67.8777 30.073 68.5239 30.3492 69.2901 30.3492C70.0563 30.3492 70.7355 30.0789 71.2558 29.5385C71.7761 28.9922 72.037 28.2775 72.037 27.3975C72.037 26.5175 71.7761 25.8368 71.2558 25.3023C70.7355 24.7678 70.0773 24.5005 69.2811 24.5005ZM71.9171 22.4599H74.4151V32.372H71.9171V31.3237C71.4268 31.7859 70.9335 32.1196 70.4387 32.3263C69.9484 32.5271 69.4161 32.6275 68.8403 32.6275C67.5478 32.6275 66.4308 32.1328 65.4877 31.1421C64.5445 30.1454 64.0737 28.9095 64.0737 27.4344C64.0737 25.9593 64.5295 24.6496 65.4427 23.6722C66.3558 22.6947 67.4639 22.2059 68.7683 22.2059C69.3681 22.2059 69.9319 22.3182 70.4582 22.5426C70.9844 22.767 71.4717 23.1052 71.9186 23.554V22.4614L71.9171 22.4599Z" fill="#4E6EDD"/>
<path d="M75.9878 22.4599H78.1379V23.7076C78.3703 23.2159 78.6792 22.8423 79.0661 22.5869C79.4514 22.3315 79.8742 22.2045 80.333 22.2045C80.6569 22.2045 80.9973 22.2901 81.3526 22.4599L80.5714 24.6009C80.2776 24.4547 80.0362 24.3824 79.8457 24.3824C79.4604 24.3824 79.132 24.6186 78.8621 25.0926C78.5982 25.5666 78.4678 26.4954 78.4678 27.8804L78.4768 28.3632V32.3721H75.9878V22.4599Z" fill="#4E6EDD"/>
<path d="M83.3873 18.8054H85.8853V22.4599H87.3742V24.6009H85.8853V32.3721H83.3873V24.6009H82.1008V22.4599H83.3873V18.8054Z" fill="#4E6EDD"/>
<path d="M88.8181 22.4599H91.3161V23.4713C91.8859 22.9974 92.4002 22.6696 92.859 22.488C93.3238 22.299 93.7991 22.2059 94.2834 22.2059C95.276 22.2059 96.1172 22.5485 96.8099 23.2351C97.3917 23.8183 97.6825 24.6806 97.6825 25.822V32.372H95.2025V28.0265C95.2025 26.8423 95.1471 26.0553 95.0376 25.667C94.9342 25.2787 94.7467 24.9833 94.4768 24.7825C94.2129 24.5758 93.8861 24.4725 93.4932 24.4725C92.9849 24.4725 92.5471 24.6423 92.1798 24.9833C91.8184 25.317 91.568 25.7822 91.4271 26.3772C91.3536 26.6873 91.3161 27.3576 91.3161 28.3912V32.372H88.8181V22.4599Z" fill="#4E6EDD"/>
<path d="M106.928 26.1764C106.763 25.6242 106.435 25.1738 105.944 24.8283C105.46 24.4828 104.898 24.3085 104.254 24.3085C103.556 24.3085 102.944 24.5034 102.418 24.8918C102.086 25.1354 101.78 25.5636 101.499 26.1764H106.928ZM109.445 28.1358H101.389C101.506 28.8401 101.815 29.4027 102.317 29.822C102.826 30.2355 103.472 30.4422 104.256 30.4422C105.193 30.4422 105.998 30.1173 106.671 29.4676L108.784 30.451C108.258 31.1923 107.627 31.7415 106.892 32.1003C106.157 32.4532 105.285 32.629 104.274 32.629C102.706 32.629 101.43 32.1402 100.443 31.1627C99.4564 30.1793 98.9646 28.9494 98.9646 27.4728C98.9646 25.9963 99.4549 24.7057 100.434 23.7105C101.421 22.708 102.655 22.2074 104.136 22.2074C105.71 22.2074 106.989 22.708 107.976 23.7105C108.963 24.7072 109.454 26.0243 109.454 27.6648L109.445 28.1387V28.1358Z" fill="#4E6EDD"/>
<path d="M110.991 22.4599H113.141V23.7076C113.374 23.2159 113.683 22.8423 114.069 22.5869C114.455 22.3315 114.878 22.2045 115.336 22.2045C115.66 22.2045 116.001 22.2901 116.356 22.4599L115.575 24.6009C115.281 24.4547 115.04 24.3824 114.849 24.3824C114.464 24.3824 114.135 24.6186 113.866 25.0926C113.602 25.5666 113.471 26.4954 113.471 27.8804L113.48 28.3632V32.3721H110.991V22.4599Z" fill="#4E6EDD"/>
<path d="M123.817 23.8449L122.265 25.385C121.634 24.7648 121.061 24.4562 120.547 24.4562C120.265 24.4562 120.045 24.5167 119.886 24.6378C119.727 24.753 119.647 24.8992 119.647 25.0749C119.647 25.2078 119.697 25.3333 119.794 25.4485C119.898 25.5577 120.15 25.7098 120.547 25.9047L121.466 26.361C122.433 26.8349 123.097 27.3178 123.459 27.8095C123.82 28.3012 124 28.8785 124 29.54C124 30.42 123.672 31.1554 123.016 31.7445C122.367 32.3337 121.495 32.629 120.399 32.629C118.941 32.629 117.778 32.0634 116.908 30.9339L118.451 29.2668C118.745 29.6065 119.088 29.884 119.479 30.0952C119.877 30.3019 120.229 30.4053 120.536 30.4053C120.868 30.4053 121.133 30.327 121.336 30.169C121.538 30.011 121.639 29.8294 121.639 29.6227C121.639 29.2403 121.274 28.8667 120.545 28.502L119.7 28.0826C118.083 27.275 117.275 26.2635 117.275 25.0483C117.275 24.2643 117.578 23.5969 118.185 23.0446C118.797 22.4865 119.578 22.2059 120.528 22.2059C121.177 22.2059 121.785 22.3492 122.355 22.6341C122.931 22.9132 123.418 23.3178 123.816 23.8464L123.817 23.8449Z" fill="#4E6EDD"/>
</g>
<defs>
<linearGradient id="paint0_linear_3_463" x1="35.9407" y1="1.17529" x2="37.821" y2="34.9253" gradientUnits="userSpaceOnUse">
<stop offset="0.02" stop-color="#4E6EDD"/>
<stop offset="0.27" stop-color="#4F79DD"/>
<stop offset="0.73" stop-color="#5397E0"/>
<stop offset="1" stop-color="#56ADE2"/>
</linearGradient>
<linearGradient id="paint1_linear_3_463" x1="11.8633" y1="21.0586" x2="-0.878894" y2="54.154" gradientUnits="userSpaceOnUse">
<stop stop-color="#A2F0F2"/>
<stop offset="0.28" stop-color="#46C0C6"/>
<stop offset="0.55" stop-color="#2FA8A8"/>
</linearGradient>
<linearGradient id="paint2_linear_3_463" x1="18.879" y1="7.06376" x2="24.9225" y2="39.8917" gradientUnits="userSpaceOnUse">
<stop offset="0.02" stop-color="#6582E3"/>
<stop offset="0.25" stop-color="#609EE4"/>
<stop offset="0.46" stop-color="#5DB0E4"/>
<stop offset="0.61" stop-color="#5CB7E5"/>
<stop offset="0.65" stop-color="#55B4DC"/>
<stop offset="0.85" stop-color="#39ABB6"/>
<stop offset="0.96" stop-color="#2FA8A8"/>
</linearGradient>
<clipPath id="clip0_3_463">
<rect width="124" height="36" fill="white"/>
</clipPath>
</defs>
</svg>
